<?xml version="1.0" encoding="UTF-8" standalone="no"?>
<svg
   width="32"
   height="32"
   viewBox="0 0 32 32"
   fill="none"
   version="1.1"
   id="svg10"
   sodipodi:docname="Manager.svg"
   inkscape:version="1.3.2 (091e20e, 2023-11-25, custom)"
   xmlns:inkscape="http://www.inkscape.org/namespaces/inkscape"
   xmlns:sodipodi="http://sodipodi.sourceforge.net/DTD/sodipodi-0.dtd"
   xmlns="http://www.w3.org/2000/svg"
   xmlns:svg="http://www.w3.org/2000/svg">
  <sodipodi:namedview
     id="namedview10"
     pagecolor="#ffffff"
     bordercolor="#000000"
     borderopacity="0.25"
     inkscape:showpageshadow="2"
     inkscape:pageopacity="0.0"
     inkscape:pagecheckerboard="0"
     inkscape:deskcolor="#d1d1d1"
     inkscape:zoom="22.627417"
     inkscape:cx="12.860505"
     inkscape:cy="15.180699"
     inkscape:window-width="1920"
     inkscape:window-height="1057"
     inkscape:window-x="-8"
     inkscape:window-y="-8"
     inkscape:window-maximized="1"
     inkscape:current-layer="svg10" />
  <g
     id="g10">
    <circle
       cx="16"
       cy="16"
       r="16"
       fill="url(#paint0_linear_38_34)"
       id="circle1" />
    <circle
       cx="16"
       cy="16"
       r="15.6"
       stroke="black"
       stroke-width="0.8"
       id="circle2" />
    <g
       filter="url(#filter0_d_38_34)"
       id="g3">
      <path
         fill-rule="evenodd"
         clip-rule="evenodd"
         d="M22.2 11.6V13.8C22.2 17.4451 19.2451 20.4 15.6 20.4C11.9549 20.4 9 17.4451 9 13.8V11.6C9 7.95492 11.9549 5 15.6 5C19.2451 5 22.2 7.95492 22.2 11.6ZM15.6 8.3C13.7775 8.3 12.3 9.77746 12.3 11.6V13.8C12.3 15.6225 13.7775 17.1 15.6 17.1C17.4225 17.1 18.9 15.6225 18.9 13.8V11.6C18.9 9.77746 17.4225 8.3 15.6 8.3Z"
         fill="url(#paint1_linear_38_34)"
         id="path2" />
      <path
         d="M5 15.4654C5 14.0846 6.11929 12.9654 7.5 12.9654H24C25.3807 12.9654 26.5 14.0846 26.5 15.4654V21.1654C26.5 23.9268 24.7614 26.1654 22 26.1654H10C7.23858 26.1654 5 23.9268 5 21.1654V15.4654Z"
         fill="url(#paint2_linear_38_34)"
         id="path3" />
    </g>
  </g>
  <defs
     id="defs10">
    <filter
       id="filter0_d_38_34"
       x="1"
       y="1"
       width="29.5"
       height="29.1654"
       filterUnits="userSpaceOnUse"
       color-interpolation-filters="sRGB">
      <feFlood
         flood-opacity="0"
         result="BackgroundImageFix"
         id="feFlood3" />
      <feColorMatrix
         in="SourceAlpha"
         type="matrix"
         values="0 0 0 0 0 0 0 0 0 0 0 0 0 0 0 0 0 0 127 0"
         result="hardAlpha"
         id="feColorMatrix3" />
      <feOffset
         id="feOffset3" />
      <feGaussianBlur
         stdDeviation="2"
         id="feGaussianBlur3" />
      <feComposite
         in2="hardAlpha"
         operator="out"
         id="feComposite3" />
      <feColorMatrix
         type="matrix"
         values="0 0 0 0 0 0 0 0 0 0 0 0 0 0 0 0 0 0 0.25 0"
         id="feColorMatrix4" />
      <feBlend
         mode="normal"
         in2="BackgroundImageFix"
         result="effect1_dropShadow_38_34"
         id="feBlend4" />
      <feBlend
         mode="normal"
         in="SourceGraphic"
         in2="effect1_dropShadow_38_34"
         result="shape"
         id="feBlend5" />
    </filter>
    <linearGradient
       id="paint0_linear_38_34"
       x1="16"
       y1="0"
       x2="16"
       y2="32"
       gradientUnits="userSpaceOnUse">
      <stop
         stop-color="#10D7E2"
         id="stop5" />
      <stop
         offset="1"
         stop-color="#09767C"
         id="stop6" />
    </linearGradient>
    <linearGradient
       id="paint1_linear_38_34"
       x1="15.5"
       y1="4.16534"
       x2="15.5"
       y2="26.1653"
       gradientUnits="userSpaceOnUse">
      <stop
         stop-color="#9358F7"
         id="stop7" />
      <stop
         offset="1"
         stop-color="#6629CD"
         id="stop8" />
    </linearGradient>
    <linearGradient
       id="paint2_linear_38_34"
       x1="15.5"
       y1="4.16534"
       x2="15.5"
       y2="26.1653"
       gradientUnits="userSpaceOnUse">
      <stop
         stop-color="#9358F7"
         id="stop9" />
      <stop
         offset="1"
         stop-color="#6629CD"
         id="stop10" />
    </linearGradient>
  </defs>
</svg>
