<svg width="24" height="22" viewBox="0 0 24 22" fill="none" xmlns="http://www.w3.org/2000/svg">
<rect width="24" height="22" fill="#F2F2F2"/>
<path d="M24 11C24 14.4286 18.6274 19 12 19C5.37258 19 0 14.4286 0 11C0 7.57143 5.37258 3 12 3C18.6274 3 24 7.57143 24 11Z" fill="#262626"/>
<ellipse cx="12.0001" cy="11" rx="4.36364" ry="4.57143" fill="#F2F2F2"/>
<path fill-rule="evenodd" clip-rule="evenodd" d="M1.93934 0.93934C1.35355 1.52513 1.35355 2.47487 1.93934 3.06066L19.9393 21.0607C20.5251 21.6464 21.4749 21.6464 22.0607 21.0607C22.6464 20.4749 22.6464 19.5251 22.0607 18.9393L4.06066 0.93934C3.47487 0.353553 2.52513 0.353553 1.93934 0.93934Z" fill="#F2F2F2"/>
<path d="M3 2L12 11L21 20" stroke="#262626" stroke-width="1.5" stroke-linecap="round"/>
</svg>
